<!--?xml version="1.0" encoding="utf-8"?-->
<!-- Generator: Adobe Illustrator 24.1.1, SVG Export Plug-In . SVG Version: 6.00 Build 0)  -->
<svg version="1.1" id="_x31_0" xmlns="http://www.w3.org/2000/svg" xmlns:xlink="http://www.w3.org/1999/xlink" x="0px" y="0px" viewBox="0 0 512 512" style="width: 256px; height: 256px; opacity: 1;" xml:space="preserve">
<g>
	<path class="st0" d="M510.626,71.9l-36.778-36.781c-0.886-0.891-2.066-1.379-3.32-1.379c-1.25,0-2.434,0.488-3.309,1.371
		L241.363,262.518c-2.41,2.414-5.609,3.742-9.019,3.742c-3.41,0-6.614-1.328-9.023-3.738l-79.227-79.238
		c-0.89-0.879-2.07-1.367-3.32-1.367c-1.258,0-2.43,0.488-3.32,1.367l-36.778,36.789c-1.832,1.828-1.832,4.805-0.004,6.629
		l128.359,128.356c0.883,0.886,2.062,1.375,3.317,1.375c1.254,0,2.43-0.489,3.312-1.367L510.63,78.537
		C512.458,76.709,512.458,73.732,510.626,71.9z" style="fill: rgb(0,0,0);"></path>
	<path class="st0" d="M433.758,207.908v-0.23l-31.914,32v199.008c0,4.23-3.43,7.578-7.586,7.578H39.574
		c-4.223,0-7.657-3.348-7.657-7.578V83.998c0-4.148,3.434-7.582,7.657-7.582h336.973l19.863-19.863l11.707-11.574
		c-0.039-0.008-0.082-0.004-0.121-0.008l0.148-0.152c-1.438-0.238-2.953-0.317-4.469-0.317H30.082
		c-8.298,0-15.879,3.348-21.227,8.856C3.434,58.705,0,66.283,0,74.584v373.52c0,8.293,3.434,15.957,8.855,21.378
		c5.348,5.348,12.93,8.778,21.227,8.778h373.594c8.223,0,15.883-3.43,21.305-8.778c5.504-5.422,8.778-13.086,8.778-21.378V309.065
		l0.117-101.274L433.758,207.908z" style="fill: rgb(0,0,0);"></path>
</g>
</svg>
